<svg width="220" height="88" viewBox="0 0 220 88" fill="none" xmlns="http://www.w3.org/2000/svg">
<g clip-path="url(#clip0_481_8638)">
<path d="M110 87.9389C170.751 87.9389 220 68.2531 220 43.9694C220 19.6858 170.751 0 110 0C49.2487 0 0 19.6858 0 43.9694C0 68.2531 49.2487 87.9389 110 87.9389Z" fill="white"/>
<path d="M109.999 4.98047C51.1492 4.98047 3.44434 22.4964 3.44434 43.9694C3.44434 65.4423 51.1492 82.9582 109.999 82.9582C168.849 82.9582 216.554 65.4423 216.554 43.9694C216.554 22.4964 168.849 4.98047 109.999 4.98047ZM109.999 80.3916C51.9589 80.3916 4.911 63.9756 4.911 43.9694C4.911 23.9631 51.9589 7.54714 109.999 7.54714C168.039 7.54714 215.087 23.9631 215.087 43.9694C215.087 63.9756 168.039 80.3916 109.999 80.3916ZM85.5242 49.6145C84.6457 51.0048 82.6673 53.4263 81.277 53.4263C80.9103 53.4263 80.6888 53.2048 80.6888 52.7694C80.6888 52.1812 80.9103 51.4478 80.9103 51.4478L86.8457 34.5888H81.8652L81.2082 36.4221C80.3297 35.0319 79.1534 34.52 77.6943 34.52C71.9041 34.52 62.4548 42.8006 62.4548 51.3027C62.4548 54.9694 64.6548 57.093 67.6568 57.093C70.6589 57.093 73.3707 54.6027 75.3492 51.593H75.4943C75.4179 52.1048 75.2728 52.9145 75.2728 53.6478C75.2728 55.4812 76.2277 56.8714 78.061 56.8714C82.1631 56.8714 85.7534 51.4478 86.9298 49.6145H85.5395H85.5242ZM79.6575 40.6006C79.6575 40.6006 78.0457 44.4812 76.4339 47.5596C75.1124 50.0499 72.1867 53.7853 70.0554 53.7853C68.52 53.7853 67.7103 52.6853 67.7103 50.852C67.7103 44.6263 74.3791 35.9791 78.1145 35.9791C79.3596 35.9791 80.0929 37.0791 80.0929 38.4694C80.0929 39.1263 79.9478 39.7909 79.6499 40.593L79.6575 40.6006ZM154.412 54.5263C151.624 54.5263 150.378 52.4714 150.378 50.2027C150.378 49.393 150.455 48.2242 150.6 47.5673C161.302 47.2006 166.061 43.3888 166.061 39.2867C166.061 36.2846 163.571 34.2298 159.683 34.2298C150.89 34.2298 144.878 42.5867 144.878 49.5457C144.878 54.5263 147.88 57.093 152.869 57.093C157.857 57.093 162.326 53.2812 164.373 50.1339H163.128C161.294 51.9673 158.216 54.5339 154.404 54.5339L154.412 54.5263ZM159.102 35.6124C160.79 35.6124 161.447 36.8575 161.447 38.3242C161.447 40.593 158.59 45.8714 150.967 46.0166C151.7 41.5478 155.214 35.6124 159.102 35.6124ZM94.6832 56.4284H89.7714C89.7714 56.4284 93.8735 44.7791 95.1186 40.6694C95.3402 39.936 95.4853 39.1339 95.4853 38.7673C95.4853 38.477 95.3402 38.1791 94.9735 38.1791C94.4617 38.1791 93.2166 38.7673 90.9402 41.9909H89.6186C92.3304 37.5221 95.6992 34.5124 98.0443 34.5124C99.5798 34.5124 100.244 35.3909 100.244 36.7812C100.244 37.736 99.8013 39.5694 98.7777 43.2284C103.178 35.2381 105.958 34.1381 107.715 34.2145C109.549 34.2145 110.572 35.4596 110.572 37.0027C110.572 38.5457 109.327 40.5166 107.417 40.5166C106.172 40.5166 105.294 39.5617 105.294 37.9499V37.4381C104.049 38.095 100.825 40.952 96.9367 50.4089L94.6679 56.4207L94.6832 56.4284ZM61.7749 27.3319C61.0416 27.1103 60.0179 26.9652 58.9867 26.9652C49.1631 26.9652 40.6686 36.4221 40.6686 46.0166C40.6686 53.052 44.9923 54.8853 48.5138 54.8853C52.6159 54.8853 55.5492 53.2735 58.261 50.852H59.7277C57.6728 53.7089 53.2804 57.2992 46.902 57.2992C38.1784 57.2992 34.8096 52.0207 34.8096 45.9402C34.8096 34.6575 46.8256 25.1242 59.4298 25.1242C64.3416 25.1242 67.1221 26.8812 67.1221 29.3714C67.1221 30.9832 65.9534 32.3735 63.9672 32.3735C62.3554 32.3735 61.1103 31.4187 61.1103 29.6617C61.1103 29.0735 61.4006 28.0499 61.7673 27.3166L61.7749 27.3319ZM136.896 34.5888H141.808L135.949 51.0812C135.872 51.3027 135.582 52.1812 135.582 52.9145C135.582 53.4263 135.803 53.6478 136.17 53.6478C137.492 53.6478 139.76 51.5242 141.151 49.6145H142.472C140.272 53.2812 136.392 57.093 132.87 57.093C131.182 57.093 130.082 56.0694 130.082 54.4575C130.082 53.5027 130.372 51.9673 131.251 49.6221L136.896 34.5964V34.5888ZM144 28.2103C144 30.3339 142.243 32.3888 140.188 32.3888C139.019 32.3888 138.133 31.6555 138.133 30.12C138.133 27.9964 139.89 25.9416 141.945 25.9416C143.114 25.9416 144 26.6749 144 28.2103ZM116.156 56.4284H111.244C111.244 56.4284 115.346 44.7791 116.592 40.6694C116.813 39.936 116.958 39.1339 116.958 38.7673C116.958 38.477 116.813 38.1791 116.446 38.1791C115.935 38.1791 114.689 38.7673 112.413 41.9909H111.092C113.803 37.5221 117.172 34.5124 119.517 34.5124C121.053 34.5124 121.717 35.3909 121.717 36.7812C121.717 37.736 121.274 39.5694 120.251 43.2284C124.651 35.2381 127.431 34.1381 129.188 34.2145C131.021 34.2145 132.045 35.4596 132.045 37.0027C132.045 38.5457 130.8 40.5166 128.89 40.5166C127.645 40.5166 126.767 39.5617 126.767 37.9499V37.4381C125.521 38.095 122.298 40.952 118.41 50.4089L116.141 56.4207L116.156 56.4284ZM173.685 56.4284H168.773C168.773 56.4284 172.875 44.7791 174.12 40.6694C174.342 39.936 174.487 39.1339 174.487 38.7673C174.487 38.477 174.342 38.1791 173.975 38.1791C173.463 38.1791 172.218 38.7673 169.942 41.9909H168.62C171.332 37.5221 174.701 34.5124 177.046 34.5124C178.581 34.5124 179.246 35.3909 179.246 36.7812C179.246 37.736 178.803 39.5694 177.779 43.2284C182.179 35.2381 184.96 34.1381 186.717 34.2145C188.55 34.2145 189.574 35.4596 189.574 37.0027C189.574 38.5457 188.328 40.5166 186.419 40.5166C185.174 40.5166 184.295 39.5617 184.295 37.9499V37.4381C183.05 38.095 179.826 40.952 175.938 50.4089L173.669 56.4207L173.685 56.4284Z" fill="#152C73"/>
</g>
<defs>
<clipPath id="clip0_481_8638">
<rect width="220" height="87.9389" fill="white"/>
</clipPath>
</defs>
</svg>
